name GIL04_static.mot
datacolumns 141
datarows 4
range 0.96666664 0.99166667
endheader

                time	           pelvis_tx	           pelvis_ty	           pelvis_tz	         pelvis_tilt	         pelvis_list	     pelvis_rotation	       hip_flexion_r	     hip_adduction_r	      hip_rotation_r	        knee_angle_r	       ankle_angle_r	    subtalar_angle_r	         mtp_angle_r	       hip_flexion_l	     hip_adduction_l	      hip_rotation_l	        knee_angle_l	       ankle_angle_l	    subtalar_angle_l	         mtp_angle_l	    lumbar_extension	      lumbar_bending	     lumbar_rotation	    ground_marker_px	    ground_marker_py	    ground_marker_pz	    ground_marker_px	    ground_marker_py	    ground_marker_pz	    ground_marker_px	    ground_marker_py	    ground_marker_pz	    ground_marker_px	    ground_marker_py	    ground_marker_pz	    ground_marker_px	    ground_marker_py	    ground_marker_pz	    ground_marker_px	    ground_marker_py	    ground_marker_pz	    ground_marker_px	    ground_marker_py	    ground_marker_pz	    ground_marker_px	    ground_marker_py	    ground_marker_pz	    ground_marker_px	    ground_marker_py	    ground_marker_pz	    ground_marker_px	    ground_marker_py	    ground_marker_pz	    ground_marker_px	    ground_marker_py	    ground_marker_pz	    ground_marker_px	    ground_marker_py	    ground_marker_pz	    ground_marker_px	    ground_marker_py	    ground_marker_pz	    ground_marker_px	    ground_marker_py	    ground_marker_pz	    ground_marker_px	    ground_marker_py	    ground_marker_pz	    ground_marker_px	    ground_marker_py	    ground_marker_pz	    ground_marker_px	    ground_marker_py	    ground_marker_pz	    ground_marker_px	    ground_marker_py	    ground_marker_pz	    ground_marker_px	    ground_marker_py	    ground_marker_pz	    ground_marker_px	    ground_marker_py	    ground_marker_pz	    ground_marker_px	    ground_marker_py	    ground_marker_pz	    ground_marker_px	    ground_marker_py	    ground_marker_pz	    ground_marker_px	    ground_marker_py	    ground_marker_pz	    ground_marker_px	    ground_marker_py	    ground_marker_pz	    ground_marker_px	    ground_marker_py	    ground_marker_pz	    ground_marker_px	    ground_marker_py	    ground_marker_pz	    ground_marker_px	    ground_marker_py	    ground_marker_pz	    ground_marker_px	    ground_marker_py	    ground_marker_pz	    ground_marker_px	    ground_marker_py	    ground_marker_pz	    ground_marker_px	    ground_marker_py	    ground_marker_pz	    ground_marker_px	    ground_marker_py	    ground_marker_pz	    ground_marker_px	    ground_marker_py	    ground_marker_pz	    ground_marker_px	    ground_marker_py	    ground_marker_pz	    ground_marker_px	    ground_marker_py	    ground_marker_pz	    ground_marker_px	    ground_marker_py	    ground_marker_pz	    ground_marker_px	    ground_marker_py	    ground_marker_pz	    ground_marker_px	    ground_marker_py	    ground_marker_pz	    ground_marker_px	    ground_marker_py	    ground_marker_pz	    ground_marker_px	    ground_marker_py	    ground_marker_pz	
          0.96666664	          1.43605423	          0.75323999	         -0.22654380	        -11.49780655	         -1.18463898	         -2.52014065	          8.30130577	         -2.34690976	         -0.44142827	          6.08209991	         -3.30472708	          0.00000000	          0.00000000	          7.45788383	         -5.22111273	         -2.44197440	          3.02686739	          0.03906377	          0.00000000	          0.00000000	         17.12648201	          1.78146505	         -1.19733441	          1.36077309	          0.70145261	         -0.22707129	          1.35875428	          0.70374733	         -0.16423112	          1.36279202	          0.69915795	         -0.28991145	          1.33984721	          0.37428561	         -0.13923948	          1.34108853	          0.37808287	         -0.30825076	          1.35525405	          0.05754329	         -0.10950133	          1.33635676	          0.05942985	         -0.34373236	          1.43605423	          0.75323999	         -0.22654380	          1.43305659	          0.75664729	         -0.13323683	          1.43905199	          0.74983275	         -0.31985077	          1.29742050	          0.81639719	         -0.21432041	          1.29842126	          0.80951953	         -0.26870120	          1.33795547	          0.37821063	         -0.08892779	          1.34088159	          0.38094810	         -0.35816815	          1.33715129	          0.37589359	         -0.18939966	          1.34280860	          0.36657384	         -0.25490034	          1.34530950	          0.06005377	         -0.07761005	          1.33031380	          0.06327738	         -0.37748039	          1.35175955	          0.06525995	         -0.13722312	          1.33251822	          0.06036705	         -0.31384400	          1.29987407	          0.03892301	         -0.11241449	          1.28331447	          0.04082457	         -0.33855826	          1.39903164	          1.11541808	         -0.24280325	          1.45225656	          0.98132950	         -0.23904784	          1.32336521	          1.14992678	         -0.24328385	          1.39816606	          1.12792659	         -0.18254013	          1.40388632	          1.12754071	         -0.29779363	          1.45135689	          0.04006453	         -0.09915830	          1.43209982	          0.03869634	         -0.35747659	          1.34185302	          0.48507696	         -0.02090208	          1.47710133	          0.47595814	         -0.33504745	          1.38153756	          0.53824776	         -0.09144954	          1.41317058	          0.53033906	         -0.27414629	          1.38620067	          0.45380938	         -0.09883886	          1.39657462	          0.44405445	         -0.27503222	          1.31708395	          0.16816342	         -0.01501369	          1.42065561	          0.16335462	         -0.37178636	          1.32945240	          0.21934915	         -0.07881059	          1.36027825	          0.21663675	         -0.34412020	
          0.97500002	          1.43607807	          0.75323761	         -0.22652858	        -11.50216293	         -1.18370342	         -2.52716923	          8.30797386	         -2.34338760	         -0.44401768	          6.08270454	         -3.30727005	          0.00000000	          0.00000000	          7.46183777	         -5.22442102	         -2.43836713	          3.02360582	          0.04170537	          0.00000000	          0.00000000	         17.09167671	          1.79091763	         -1.21331263	          1.36079311	          0.70145571	         -0.22706327	          1.35876691	          0.70375276	         -0.16422343	          1.36281931	          0.69915873	         -0.28990310	          1.33987319	          0.37431395	         -0.13924365	          1.34111702	          0.37808189	         -0.30825204	          1.35529494	          0.05754788	         -0.10950843	          1.33637178	          0.05942866	         -0.34373006	          1.43607807	          0.75323761	         -0.22652858	          1.43306959	          0.75664830	         -0.13322093	          1.43908668	          0.74982697	         -0.31983626	          1.29744649	          0.81641102	         -0.21433292	          1.29846191	          0.80951709	         -0.26870379	          1.33797288	          0.37823781	         -0.08893220	          1.34091926	          0.38094795	         -0.35816944	          1.33714223	          0.37594312	         -0.18939102	          1.34284496	          0.36659557	         -0.25484851	          1.34534538	          0.06005702	         -0.07761863	          1.33033514	          0.06327610	         -0.37747923	          1.35176301	          0.06529177	         -0.13722803	          1.33252537	          0.06037530	         -0.31384578	          1.29988217	          0.03893626	         -0.11242524	          1.28331840	          0.04083213	         -0.33856669	          1.39897740	          1.11541688	         -0.24278821	          1.45211077	          0.98129183	         -0.23903550	          1.32324755	          1.15000141	         -0.24331021	          1.39809561	          1.12791514	         -0.18251373	          1.40386283	          1.12754595	         -0.29778394	          1.45138073	          0.04006812	         -0.09916867	          1.43210328	          0.03868549	         -0.35748172	          1.34186995	          0.48508194	         -0.02090292	          1.47713959	          0.47595212	         -0.33504406	          1.38159490	          0.53830373	         -0.09145103	          1.41322565	          0.53035057	         -0.27414566	          1.38621724	          0.45382652	         -0.09883251	          1.39661694	          0.44406068	         -0.27500811	          1.31709504	          0.16816802	         -0.01501878	          1.42067647	          0.16334666	         -0.37177882	          1.32949758	          0.21940042	         -0.07881864	          1.36032081	          0.21663390	         -0.34411800	
          0.98333335	          1.43610549	          0.75321710	         -0.22650480	        -11.51244354	         -1.18397951	         -2.53779101	          8.32142258	         -2.33581495	         -0.44283208	          6.08574247	         -3.31319547	          0.00000000	          0.00000000	          7.47190094	         -5.23137808	         -2.43524456	          3.02158046	          0.04307771	          0.00000000	          0.00000000	         17.04541588	          1.80578721	         -1.23092806	          1.36081159	          0.70144844	         -0.22704807	          1.35877526	          0.70375067	         -0.16420875	          1.36284792	          0.69914615	         -0.28988740	          1.33989906	          0.37432480	         -0.13924842	          1.34115016	          0.37807000	         -0.30825189	          1.35535443	          0.05753008	         -0.10952254	          1.33640158	          0.05939693	         -0.34371305	          1.43610549	          0.75321710	         -0.22650480	          1.43308210	          0.75663531	         -0.13320629	          1.43912888	          0.74979889	         -0.31980333	          1.29747045	          0.81642479	         -0.21434699	          1.29850686	          0.80951351	         -0.26870725	          1.33799124	          0.37824616	         -0.08893706	          1.34096348	          0.38093773	         -0.35816926	          1.33714080	          0.37594736	         -0.18938285	          1.34292376	          0.36649460	         -0.25484160	          1.34540009	          0.06003665	         -0.07763398	          1.33037245	          0.06324247	         -0.37746379	          1.35178471	          0.06531033	         -0.13724661	          1.33258128	          0.06039153	         -0.31384262	          1.29988408	          0.03895335	         -0.11244583	          1.28331888	          0.04084307	         -0.33857825	          1.39894831	          1.11537898	         -0.24279809	          1.45194936	          0.98120153	         -0.23905204	          1.32325530	          1.15003669	         -0.24334964	          1.39805055	          1.12786388	         -0.18253185	          1.40387118	          1.12751651	         -0.29777783	          1.45141184	          0.04006189	         -0.09918270	          1.43211091	          0.03865856	         -0.35748425	          1.34187770	          0.48507732	         -0.02090538	          1.47718346	          0.47593004	         -0.33502409	          1.38162565	          0.53831732	         -0.09144668	          1.41320324	          0.53029203	         -0.27411172	          1.38622606	          0.45380759	         -0.09882408	          1.39665079	          0.44399950	         -0.27498499	          1.31710386	          0.16816005	         -0.01503079	          1.42070162	          0.16332439	         -0.37176022	          1.32954264	          0.21941845	         -0.07883240	          1.36034989	          0.21658838	         -0.34410635	
          0.99166667	          1.43613648	          0.75318265	         -0.22647214	        -11.52576065	         -1.18480086	         -2.55211592	          8.33810806	         -2.32484889	         -0.43785819	          6.08854437	         -3.31900477	          0.00000000	          0.00000000	          7.48458099	         -5.24121475	         -2.43375301	          3.02046609	          0.04401735	          0.00000000	          0.00000000	         17.00562286	          1.83466589	         -1.22144639	          1.36083078	          0.70143104	         -0.22702640	          1.35878098	          0.70374084	         -0.16418780	          1.36288071	          0.69912124	         -0.28986502	          1.33992231	          0.37431231	         -0.13925433	          1.34118700	          0.37804574	         -0.30825084	          1.35541070	          0.05748844	         -0.10954297	          1.33644032	          0.05933651	         -0.34368461	          1.43613648	          0.75318265	         -0.22647214	          1.43309367	          0.75661147	         -0.13319112	          1.43917942	          0.74975383	         -0.31975317	          1.29749131	          0.81643450	         -0.21436313	          1.29855371	          0.80950624	         -0.26871192	          1.33800745	          0.37822986	         -0.08894294	          1.34101307	          0.38091591	         -0.35816813	          1.33724713	          0.37589008	         -0.18942916	          1.34296513	          0.36637518	         -0.25483590	          1.34545207	          0.05999197	         -0.07765555	          1.33041966	          0.06317876	         -0.37743723	          1.35183930	          0.06529249	         -0.13725908	          1.33265913	          0.06036113	         -0.31383541	          1.29988194	          0.03896663	         -0.11246891	          1.28331649	          0.04085396	         -0.33859092	          1.39896548	          1.11530995	         -0.24285054	          1.45184457	          0.98108298	         -0.23915565	          1.32326555	          1.15004718	         -0.24336366	          1.39807761	          1.12777185	         -0.18258981	          1.40390062	          1.12746465	         -0.29781494	          1.45144415	          0.04004377	         -0.09919591	          1.43212223	          0.03861911	         -0.35748312	          1.34187233	          0.48506251	         -0.02090945	          1.47723186	          0.47589502	         -0.33498710	          1.38163102	          0.53827786	         -0.09144188	          1.41319537	          0.53019542	         -0.27407718	          1.38627112	          0.45373109	         -0.09883923	          1.39667225	          0.44390073	         -0.27496007	          1.31710827	          0.16813751	         -0.01504768	          1.42072833	          0.16328770	         -0.37173596	          1.32959366	          0.21939197	         -0.07884972	          1.36036742	          0.21651632	         -0.34409431	
